# xmcd
#
# Track frame offsets: 
#        150
#        15683
#        37510
#        53497
#        59509
#        62167
#        66417
#        71991
#        77890
#        84515
#        88103
#        93360
#        118441
#        123462
#        130811
#        134633
#        138560
#        144512
#        157842
#        161536
#        189750
#        193562
#        201881
#        206527
#        211219
#        227372
#        232560
#        247412
#        249786
#        255558
#        263086
#        270291
#        277585
#        292851
#        296915
#        301132
#        304039
#        308196
#        322162
#        339381
#
# Disc length: 4797 seconds
#
# Revision: 1
# Processed by: cddbd v1.5.2PL0 Copyright (c) Steve Scherf et al.
# Submitted via: ExactAudioCopyFreeDBPlugin 1.0
#
DISCID=3f12bb28
DTITLE=Prinz Porno - Geschriebene Geschichte 1998 - 2005
DYEAR=2005
DGENRE=Rap
TTITLE0=Mondlied
TTITLE1=Träumer '05 (Biztram RMX)
TTITLE2=Keine Liebe '05 (Beatzarre RMX)
TTITLE3=Soziale Kontakte
TTITLE4=Er, Sie, Es
TTITLE5=Frei zum Abschuss
TTITLE6=200 Prozent
TTITLE7=P.R.O. Molle MCs Nonstop
TTITLE8=Bonnies Ranch
TTITLE9=Dick Diamant
TTITLE10=Botanischer Garten
TTITLE11=Tagebuch
TTITLE12=MadRaps
TTITLE13=Du Hure
TTITLE14=Safari
TTITLE15=Troopercars
TTITLE16=Bonnies Ranch 2
TTITLE17=Falscher Ort
TTITLE18=Nie genug
TTITLE19=Cyborg
TTITLE20=Orakel
TTITLE21=20.000 Meilen
TTITLE22=Nachtaktion
TTITLE23=HiTekRapClik
TTITLE24=Herren der Welt
TTITLE25=Picknick
TTITLE26=Heiskalt
TTITLE27=RapHoudinis
TTITLE28=Jung, schön und stylisch
TTITLE29=Ziggy Digital
TTITLE30=Wir
TTITLE31=Ich pay deuce
TTITLE32=Wunderkind
TTITLE33=Dampf
TTITLE34=Was du suchst
TTITLE35=Kreis
TTITLE36=ChillBill
TTITLE37=Ausser Pee (Video Version) feat. Esko
TTITLE38=Geschriebene Geschichte
TTITLE39=Reiß es ab!
EXTD=
EXTT0=
EXTT1=
EXTT2=
EXTT3=
EXTT4=
EXTT5=
EXTT6=
EXTT7=
EXTT8=
EXTT9=
EXTT10=
EXTT11=
EXTT12=
EXTT13=
EXTT14=
EXTT15=
EXTT16=
EXTT17=
EXTT18=
EXTT19=
EXTT20=
EXTT21=
EXTT22=
EXTT23=
EXTT24=
EXTT25=
EXTT26=
EXTT27=
EXTT28=
EXTT29=
EXTT30=
EXTT31=
EXTT32=
EXTT33=
EXTT34=
EXTT35=
EXTT36=
EXTT37=
EXTT38=
EXTT39=
PLAYORDER=
